<mxfile host="app.diagrams.net" agent="Mozilla/5.0 (X11; Linux x86_64; rv:128.0) Gecko/20100101 Firefox/128.0" version="26.1.2">
  <diagram name="Page-1" id="GoLNNhoR9JQIdwmi2k9M">
    <mxGraphModel dx="3134" dy="2165" grid="1" gridSize="10" guides="1" tooltips="1" connect="1" arrows="1" fold="1" page="1" pageScale="1" pageWidth="1100" pageHeight="850" background="#FFFFFF" math="0" shadow="0">
      <root>
        <mxCell id="0" />
        <mxCell id="1" parent="0" />
        <mxCell id="596ySrerEDE0G81WWoC6-142" value="" style="rounded=0;whiteSpace=wrap;html=1;strokeColor=#E6E6E6;fontFamily=Courier New;fontSize=11;fontColor=#46495D;labelBackgroundColor=none;fillColor=#E6E6E6;align=left;" vertex="1" parent="1">
          <mxGeometry x="780" y="-350" width="350" height="190" as="geometry" />
        </mxCell>
        <mxCell id="596ySrerEDE0G81WWoC6-1" value="" style="fontStyle=1;align=left;verticalAlign=middle;childLayout=stackLayout;horizontal=1;horizontalStack=0;resizeParent=1;resizeParentMax=0;resizeLast=0;marginBottom=0;strokeColor=#56517e;fillColor=#D0CEE2;labelBackgroundColor=none;fontFamily=Courier New;fontSize=14;labelBorderColor=none;textShadow=0;shadow=0;resizeWidth=1;resizeHeight=1;" vertex="1" parent="1">
          <mxGeometry x="-310" y="596" width="220" height="106" as="geometry" />
        </mxCell>
        <mxCell id="596ySrerEDE0G81WWoC6-2" value="DiseaseEngine" style="align=left;spacingLeft=4;verticalAlign=middle;strokeColor=#56517e;fillColor=#D0CEE2;labelBackgroundColor=none;fontFamily=Courier New;fontSize=14;labelBorderColor=none;textShadow=0;shadow=0;resizeWidth=1;resizeHeight=1;" vertex="1" parent="596ySrerEDE0G81WWoC6-1">
          <mxGeometry width="220" height="40" as="geometry" />
        </mxCell>
        <mxCell id="596ySrerEDE0G81WWoC6-3" value="" style="shape=module;jettyWidth=10;jettyHeight=4;strokeColor=#56517e;fillColor=#D0CEE2;labelBackgroundColor=none;fontFamily=Courier New;fontSize=14;verticalAlign=middle;align=left;labelBorderColor=none;textShadow=0;shadow=0;resizeWidth=1;resizeHeight=1;" vertex="1" parent="596ySrerEDE0G81WWoC6-2">
          <mxGeometry x="1" width="16" height="20" relative="1" as="geometry">
            <mxPoint x="-25" y="9" as="offset" />
          </mxGeometry>
        </mxCell>
        <mxCell id="596ySrerEDE0G81WWoC6-4" value="" style="line;strokeWidth=1;fillColor=#D0CEE2;align=left;verticalAlign=middle;spacingTop=-1;spacingLeft=3;spacingRight=3;rotatable=0;labelPosition=right;points=[];portConstraint=eastwest;strokeColor=#56517e;labelBackgroundColor=none;fontFamily=Courier New;fontSize=14;labelBorderColor=none;textShadow=0;shadow=0;resizeWidth=1;resizeHeight=1;" vertex="1" parent="596ySrerEDE0G81WWoC6-1">
          <mxGeometry y="40" width="220" height="8" as="geometry" />
        </mxCell>
        <mxCell id="596ySrerEDE0G81WWoC6-5" value="provided interfaces" style="align=left;spacingLeft=4;verticalAlign=middle;strokeColor=#56517e;fillColor=#D0CEE2;labelBackgroundColor=none;fontFamily=Courier New;fontSize=14;labelBorderColor=none;textShadow=0;shadow=0;resizeWidth=1;resizeHeight=1;" vertex="1" parent="596ySrerEDE0G81WWoC6-1">
          <mxGeometry y="48" width="220" height="25" as="geometry" />
        </mxCell>
        <mxCell id="596ySrerEDE0G81WWoC6-7" value="" style="line;strokeWidth=1;fillColor=#D0CEE2;align=left;verticalAlign=middle;spacingTop=-1;spacingLeft=3;spacingRight=3;rotatable=0;labelPosition=right;points=[];portConstraint=eastwest;strokeColor=#56517e;labelBackgroundColor=none;fontFamily=Courier New;fontSize=14;labelBorderColor=none;textShadow=0;shadow=0;resizeWidth=1;resizeHeight=1;" vertex="1" parent="596ySrerEDE0G81WWoC6-1">
          <mxGeometry y="73" width="220" height="8" as="geometry" />
        </mxCell>
        <mxCell id="596ySrerEDE0G81WWoC6-8" value="required interfaces" style="align=left;spacingLeft=4;verticalAlign=middle;strokeColor=#56517e;fillColor=#D0CEE2;labelBackgroundColor=none;fontFamily=Courier New;fontSize=14;labelBorderColor=none;textShadow=0;shadow=0;resizeWidth=1;resizeHeight=1;" vertex="1" parent="596ySrerEDE0G81WWoC6-1">
          <mxGeometry y="81" width="220" height="25" as="geometry" />
        </mxCell>
        <mxCell id="596ySrerEDE0G81WWoC6-79" style="edgeStyle=orthogonalEdgeStyle;rounded=0;orthogonalLoop=1;jettySize=auto;html=1;exitX=0.5;exitY=1;exitDx=0;exitDy=0;entryX=0.389;entryY=1.096;entryDx=0;entryDy=0;entryPerimeter=0;strokeColor=#788AA3;fontColor=#46495D;fillColor=#B2C9AB;fontFamily=Courier New;labelBackgroundColor=none;" edge="1" parent="596ySrerEDE0G81WWoC6-1" source="596ySrerEDE0G81WWoC6-5" target="596ySrerEDE0G81WWoC6-5">
          <mxGeometry relative="1" as="geometry" />
        </mxCell>
        <mxCell id="596ySrerEDE0G81WWoC6-10" value="" style="fontStyle=1;align=left;verticalAlign=middle;childLayout=stackLayout;horizontal=1;horizontalStack=0;resizeParent=1;resizeParentMax=0;resizeLast=0;marginBottom=0;strokeColor=#56517e;fillColor=#D0CEE2;labelBackgroundColor=none;fontFamily=Courier New;fontSize=14;labelBorderColor=none;textShadow=0;shadow=0;resizeWidth=1;resizeHeight=1;" vertex="1" parent="1">
          <mxGeometry x="110" y="406" width="220" height="106" as="geometry" />
        </mxCell>
        <mxCell id="596ySrerEDE0G81WWoC6-11" value="InterventionManager" style="align=left;spacingLeft=4;verticalAlign=middle;strokeColor=#56517e;fillColor=#D0CEE2;labelBackgroundColor=none;fontFamily=Courier New;fontSize=14;labelBorderColor=none;textShadow=0;shadow=0;resizeWidth=1;resizeHeight=1;" vertex="1" parent="596ySrerEDE0G81WWoC6-10">
          <mxGeometry width="220" height="40" as="geometry" />
        </mxCell>
        <mxCell id="596ySrerEDE0G81WWoC6-12" value="" style="shape=module;jettyWidth=10;jettyHeight=4;strokeColor=#56517e;fillColor=#D0CEE2;labelBackgroundColor=none;fontFamily=Courier New;fontSize=14;verticalAlign=middle;align=left;labelBorderColor=none;textShadow=0;shadow=0;resizeWidth=1;resizeHeight=1;" vertex="1" parent="596ySrerEDE0G81WWoC6-11">
          <mxGeometry x="1" width="16" height="20" relative="1" as="geometry">
            <mxPoint x="-25" y="9" as="offset" />
          </mxGeometry>
        </mxCell>
        <mxCell id="596ySrerEDE0G81WWoC6-13" value="" style="line;strokeWidth=1;fillColor=#D0CEE2;align=left;verticalAlign=middle;spacingTop=-1;spacingLeft=3;spacingRight=3;rotatable=0;labelPosition=right;points=[];portConstraint=eastwest;strokeColor=#56517e;labelBackgroundColor=none;fontFamily=Courier New;fontSize=14;labelBorderColor=none;textShadow=0;shadow=0;resizeWidth=1;resizeHeight=1;" vertex="1" parent="596ySrerEDE0G81WWoC6-10">
          <mxGeometry y="40" width="220" height="8" as="geometry" />
        </mxCell>
        <mxCell id="596ySrerEDE0G81WWoC6-14" value="provided interfaces" style="align=left;spacingLeft=4;verticalAlign=middle;strokeColor=#56517e;fillColor=#D0CEE2;labelBackgroundColor=none;fontFamily=Courier New;fontSize=14;labelBorderColor=none;textShadow=0;shadow=0;resizeWidth=1;resizeHeight=1;" vertex="1" parent="596ySrerEDE0G81WWoC6-10">
          <mxGeometry y="48" width="220" height="25" as="geometry" />
        </mxCell>
        <mxCell id="596ySrerEDE0G81WWoC6-16" value="" style="line;strokeWidth=1;fillColor=#D0CEE2;align=left;verticalAlign=middle;spacingTop=-1;spacingLeft=3;spacingRight=3;rotatable=0;labelPosition=right;points=[];portConstraint=eastwest;strokeColor=#56517e;labelBackgroundColor=none;fontFamily=Courier New;fontSize=14;labelBorderColor=none;textShadow=0;shadow=0;resizeWidth=1;resizeHeight=1;" vertex="1" parent="596ySrerEDE0G81WWoC6-10">
          <mxGeometry y="73" width="220" height="8" as="geometry" />
        </mxCell>
        <mxCell id="596ySrerEDE0G81WWoC6-17" value="required interfaces" style="align=left;spacingLeft=4;verticalAlign=middle;strokeColor=#56517e;fillColor=#D0CEE2;labelBackgroundColor=none;fontFamily=Courier New;fontSize=14;labelBorderColor=none;textShadow=0;shadow=0;resizeWidth=1;resizeHeight=1;" vertex="1" parent="596ySrerEDE0G81WWoC6-10">
          <mxGeometry y="81" width="220" height="25" as="geometry" />
        </mxCell>
        <mxCell id="596ySrerEDE0G81WWoC6-19" value="" style="fontStyle=1;align=left;verticalAlign=middle;childLayout=stackLayout;horizontal=1;horizontalStack=0;resizeParent=1;resizeParentMax=0;resizeLast=0;marginBottom=0;strokeColor=#56517e;fillColor=#D0CEE2;labelBackgroundColor=none;fontFamily=Courier New;fontSize=14;labelBorderColor=none;textShadow=0;shadow=0;" vertex="1" parent="1">
          <mxGeometry x="-1080" y="-70" width="220" height="106" as="geometry" />
        </mxCell>
        <mxCell id="596ySrerEDE0G81WWoC6-20" value="UnityVisualisation" style="align=left;spacingLeft=4;verticalAlign=middle;strokeColor=#56517e;fillColor=#D0CEE2;labelBackgroundColor=none;fontFamily=Courier New;fontSize=14;labelBorderColor=none;textShadow=0;shadow=0;resizeWidth=1;resizeHeight=1;" vertex="1" parent="596ySrerEDE0G81WWoC6-19">
          <mxGeometry width="220" height="40" as="geometry" />
        </mxCell>
        <mxCell id="596ySrerEDE0G81WWoC6-21" value="" style="shape=module;jettyWidth=10;jettyHeight=4;strokeColor=#56517e;fillColor=#D0CEE2;labelBackgroundColor=none;fontFamily=Courier New;fontSize=14;verticalAlign=middle;align=left;labelBorderColor=none;textShadow=0;shadow=0;resizeWidth=1;resizeHeight=1;" vertex="1" parent="596ySrerEDE0G81WWoC6-20">
          <mxGeometry x="1" width="16" height="20" relative="1" as="geometry">
            <mxPoint x="-25" y="9" as="offset" />
          </mxGeometry>
        </mxCell>
        <mxCell id="596ySrerEDE0G81WWoC6-22" value="" style="line;strokeWidth=1;fillColor=#D0CEE2;align=left;verticalAlign=middle;spacingTop=-1;spacingLeft=3;spacingRight=3;rotatable=0;labelPosition=right;points=[];portConstraint=eastwest;strokeColor=#56517e;labelBackgroundColor=none;fontFamily=Courier New;fontSize=14;labelBorderColor=none;textShadow=0;shadow=0;resizeWidth=1;resizeHeight=1;" vertex="1" parent="596ySrerEDE0G81WWoC6-19">
          <mxGeometry y="40" width="220" height="8" as="geometry" />
        </mxCell>
        <mxCell id="596ySrerEDE0G81WWoC6-23" value="provided interfaces" style="align=left;spacingLeft=4;verticalAlign=middle;strokeColor=#56517e;fillColor=#D0CEE2;labelBackgroundColor=none;fontFamily=Courier New;fontSize=14;labelBorderColor=none;textShadow=0;shadow=0;resizeWidth=1;resizeHeight=1;" vertex="1" parent="596ySrerEDE0G81WWoC6-19">
          <mxGeometry y="48" width="220" height="25" as="geometry" />
        </mxCell>
        <mxCell id="596ySrerEDE0G81WWoC6-25" value="" style="line;strokeWidth=1;fillColor=#D0CEE2;align=left;verticalAlign=middle;spacingTop=-1;spacingLeft=3;spacingRight=3;rotatable=0;labelPosition=right;points=[];portConstraint=eastwest;strokeColor=#56517e;labelBackgroundColor=none;fontFamily=Courier New;fontSize=14;labelBorderColor=none;textShadow=0;shadow=0;resizeWidth=1;resizeHeight=1;" vertex="1" parent="596ySrerEDE0G81WWoC6-19">
          <mxGeometry y="73" width="220" height="8" as="geometry" />
        </mxCell>
        <mxCell id="596ySrerEDE0G81WWoC6-26" value="required interfaces" style="align=left;spacingLeft=4;verticalAlign=middle;strokeColor=#56517e;fillColor=#D0CEE2;labelBackgroundColor=none;fontFamily=Courier New;fontSize=14;labelBorderColor=none;textShadow=0;shadow=0;resizeWidth=1;resizeHeight=1;" vertex="1" parent="596ySrerEDE0G81WWoC6-19">
          <mxGeometry y="81" width="220" height="25" as="geometry" />
        </mxCell>
        <mxCell id="596ySrerEDE0G81WWoC6-28" value="" style="fontStyle=5;align=left;verticalAlign=middle;childLayout=stackLayout;horizontal=1;horizontalStack=0;resizeParent=1;resizeParentMax=0;resizeLast=0;marginBottom=0;strokeColor=#56517e;fillColor=#D0CEE2;labelBackgroundColor=none;fontFamily=Courier New;fontSize=14;labelBorderColor=none;textShadow=0;shadow=0;resizeWidth=1;resizeHeight=1;" vertex="1" parent="1">
          <mxGeometry x="-730" y="450" width="220" height="106" as="geometry" />
        </mxCell>
        <mxCell id="596ySrerEDE0G81WWoC6-29" value="ScenarioLoader" style="align=left;spacingLeft=4;verticalAlign=middle;strokeColor=#56517e;fillColor=#D0CEE2;labelBackgroundColor=none;fontFamily=Courier New;fontSize=14;labelBorderColor=none;textShadow=0;shadow=0;resizeWidth=1;resizeHeight=1;" vertex="1" parent="596ySrerEDE0G81WWoC6-28">
          <mxGeometry width="220" height="40" as="geometry" />
        </mxCell>
        <mxCell id="596ySrerEDE0G81WWoC6-30" value="" style="shape=module;jettyWidth=10;jettyHeight=4;strokeColor=#56517e;fillColor=#D0CEE2;labelBackgroundColor=none;fontFamily=Courier New;fontSize=14;verticalAlign=middle;align=left;labelBorderColor=none;textShadow=0;shadow=0;resizeWidth=1;resizeHeight=1;" vertex="1" parent="596ySrerEDE0G81WWoC6-29">
          <mxGeometry x="1" width="16" height="20" relative="1" as="geometry">
            <mxPoint x="-25" y="9" as="offset" />
          </mxGeometry>
        </mxCell>
        <mxCell id="596ySrerEDE0G81WWoC6-31" value="" style="line;strokeWidth=1;fillColor=#D0CEE2;align=left;verticalAlign=middle;spacingTop=-1;spacingLeft=3;spacingRight=3;rotatable=0;labelPosition=right;points=[];portConstraint=eastwest;strokeColor=#56517e;labelBackgroundColor=none;fontFamily=Courier New;fontSize=14;labelBorderColor=none;textShadow=0;shadow=0;resizeWidth=1;resizeHeight=1;" vertex="1" parent="596ySrerEDE0G81WWoC6-28">
          <mxGeometry y="40" width="220" height="8" as="geometry" />
        </mxCell>
        <mxCell id="596ySrerEDE0G81WWoC6-32" value="provided interfaces" style="align=left;spacingLeft=4;verticalAlign=middle;strokeColor=#56517e;fillColor=#D0CEE2;labelBackgroundColor=none;fontFamily=Courier New;fontSize=14;labelBorderColor=none;textShadow=0;shadow=0;resizeWidth=1;resizeHeight=1;" vertex="1" parent="596ySrerEDE0G81WWoC6-28">
          <mxGeometry y="48" width="220" height="25" as="geometry" />
        </mxCell>
        <mxCell id="596ySrerEDE0G81WWoC6-34" value="" style="line;strokeWidth=1;fillColor=#D0CEE2;align=left;verticalAlign=middle;spacingTop=-1;spacingLeft=3;spacingRight=3;rotatable=0;labelPosition=right;points=[];portConstraint=eastwest;strokeColor=#56517e;labelBackgroundColor=none;fontFamily=Courier New;fontSize=14;labelBorderColor=none;textShadow=0;shadow=0;resizeWidth=1;resizeHeight=1;" vertex="1" parent="596ySrerEDE0G81WWoC6-28">
          <mxGeometry y="73" width="220" height="8" as="geometry" />
        </mxCell>
        <mxCell id="596ySrerEDE0G81WWoC6-35" value="required interfaces" style="align=left;spacingLeft=4;verticalAlign=middle;strokeColor=#56517e;fillColor=#D0CEE2;labelBackgroundColor=none;fontFamily=Courier New;fontSize=14;labelBorderColor=none;textShadow=0;shadow=0;resizeWidth=1;resizeHeight=1;" vertex="1" parent="596ySrerEDE0G81WWoC6-28">
          <mxGeometry y="81" width="220" height="25" as="geometry" />
        </mxCell>
        <mxCell id="596ySrerEDE0G81WWoC6-37" value="" style="fontStyle=1;align=left;verticalAlign=middle;childLayout=stackLayout;horizontal=1;horizontalStack=0;resizeParent=1;resizeParentMax=0;resizeLast=0;marginBottom=0;strokeColor=#56517e;fillColor=#D0CEE2;labelBackgroundColor=none;fontFamily=Courier New;fontSize=14;labelBorderColor=none;textShadow=0;shadow=0;resizeWidth=1;resizeHeight=1;" vertex="1" parent="1">
          <mxGeometry x="-810" y="-240" width="220" height="106" as="geometry" />
        </mxCell>
        <mxCell id="596ySrerEDE0G81WWoC6-38" value="DataLogger" style="align=left;spacingLeft=4;verticalAlign=middle;strokeColor=#56517e;fillColor=#D0CEE2;labelBackgroundColor=none;fontFamily=Courier New;fontSize=14;labelBorderColor=none;textShadow=0;shadow=0;resizeWidth=1;resizeHeight=1;" vertex="1" parent="596ySrerEDE0G81WWoC6-37">
          <mxGeometry width="220" height="40" as="geometry" />
        </mxCell>
        <mxCell id="596ySrerEDE0G81WWoC6-39" value="" style="shape=module;jettyWidth=10;jettyHeight=4;strokeColor=#56517e;fillColor=#D0CEE2;labelBackgroundColor=none;fontFamily=Courier New;fontSize=14;verticalAlign=middle;align=left;labelBorderColor=none;textShadow=0;shadow=0;resizeWidth=1;resizeHeight=1;" vertex="1" parent="596ySrerEDE0G81WWoC6-38">
          <mxGeometry x="1" width="16" height="20" relative="1" as="geometry">
            <mxPoint x="-25" y="9" as="offset" />
          </mxGeometry>
        </mxCell>
        <mxCell id="596ySrerEDE0G81WWoC6-40" value="" style="line;strokeWidth=1;fillColor=#D0CEE2;align=left;verticalAlign=middle;spacingTop=-1;spacingLeft=3;spacingRight=3;rotatable=0;labelPosition=right;points=[];portConstraint=eastwest;strokeColor=#56517e;labelBackgroundColor=none;fontFamily=Courier New;fontSize=14;labelBorderColor=none;textShadow=0;shadow=0;resizeWidth=1;resizeHeight=1;" vertex="1" parent="596ySrerEDE0G81WWoC6-37">
          <mxGeometry y="40" width="220" height="8" as="geometry" />
        </mxCell>
        <mxCell id="596ySrerEDE0G81WWoC6-41" value="provided interfaces" style="align=left;spacingLeft=4;verticalAlign=middle;strokeColor=#56517e;fillColor=#D0CEE2;labelBackgroundColor=none;fontFamily=Courier New;fontSize=14;labelBorderColor=none;textShadow=0;shadow=0;resizeWidth=1;resizeHeight=1;" vertex="1" parent="596ySrerEDE0G81WWoC6-37">
          <mxGeometry y="48" width="220" height="25" as="geometry" />
        </mxCell>
        <mxCell id="596ySrerEDE0G81WWoC6-43" value="" style="line;strokeWidth=1;fillColor=#D0CEE2;align=left;verticalAlign=middle;spacingTop=-1;spacingLeft=3;spacingRight=3;rotatable=0;labelPosition=right;points=[];portConstraint=eastwest;strokeColor=#56517e;labelBackgroundColor=none;fontFamily=Courier New;fontSize=14;labelBorderColor=none;textShadow=0;shadow=0;resizeWidth=1;resizeHeight=1;" vertex="1" parent="596ySrerEDE0G81WWoC6-37">
          <mxGeometry y="73" width="220" height="8" as="geometry" />
        </mxCell>
        <mxCell id="596ySrerEDE0G81WWoC6-44" value="required interfaces" style="align=left;spacingLeft=4;verticalAlign=middle;strokeColor=#56517e;fillColor=#D0CEE2;labelBackgroundColor=none;fontFamily=Courier New;fontSize=14;labelBorderColor=none;textShadow=0;shadow=0;resizeWidth=1;resizeHeight=1;" vertex="1" parent="596ySrerEDE0G81WWoC6-37">
          <mxGeometry y="81" width="220" height="25" as="geometry" />
        </mxCell>
        <mxCell id="596ySrerEDE0G81WWoC6-46" value="" style="fontStyle=1;align=left;verticalAlign=middle;childLayout=stackLayout;horizontal=1;horizontalStack=0;resizeParent=1;resizeParentMax=0;resizeLast=0;marginBottom=0;strokeColor=#56517e;fillColor=#D0CEE2;labelBackgroundColor=none;fontFamily=Courier New;fontSize=14;labelBorderColor=none;textShadow=0;shadow=0;resizeWidth=1;resizeHeight=1;" vertex="1" parent="1">
          <mxGeometry x="520" y="-20" width="220" height="106" as="geometry" />
        </mxCell>
        <mxCell id="596ySrerEDE0G81WWoC6-47" value="PopulationEngine" style="align=left;spacingLeft=4;verticalAlign=middle;strokeColor=#56517e;fillColor=#D0CEE2;labelBackgroundColor=none;fontFamily=Courier New;fontSize=14;labelBorderColor=none;textShadow=0;shadow=0;resizeWidth=1;resizeHeight=1;" vertex="1" parent="596ySrerEDE0G81WWoC6-46">
          <mxGeometry width="220" height="40" as="geometry" />
        </mxCell>
        <mxCell id="596ySrerEDE0G81WWoC6-48" value="" style="shape=module;jettyWidth=10;jettyHeight=4;strokeColor=#56517e;fillColor=#D0CEE2;labelBackgroundColor=none;fontFamily=Courier New;fontSize=14;verticalAlign=middle;align=left;labelBorderColor=none;textShadow=0;shadow=0;resizeWidth=1;resizeHeight=1;" vertex="1" parent="596ySrerEDE0G81WWoC6-47">
          <mxGeometry x="1" width="16" height="20" relative="1" as="geometry">
            <mxPoint x="-25" y="9" as="offset" />
          </mxGeometry>
        </mxCell>
        <mxCell id="596ySrerEDE0G81WWoC6-49" value="" style="line;strokeWidth=1;fillColor=#D0CEE2;align=left;verticalAlign=middle;spacingTop=-1;spacingLeft=3;spacingRight=3;rotatable=0;labelPosition=right;points=[];portConstraint=eastwest;strokeColor=#56517e;labelBackgroundColor=none;fontFamily=Courier New;fontSize=14;labelBorderColor=none;textShadow=0;shadow=0;resizeWidth=1;resizeHeight=1;" vertex="1" parent="596ySrerEDE0G81WWoC6-46">
          <mxGeometry y="40" width="220" height="8" as="geometry" />
        </mxCell>
        <mxCell id="596ySrerEDE0G81WWoC6-50" value="provided interfaces" style="align=left;spacingLeft=4;verticalAlign=middle;strokeColor=#56517e;fillColor=#D0CEE2;labelBackgroundColor=none;fontFamily=Courier New;fontSize=14;labelBorderColor=none;textShadow=0;shadow=0;resizeWidth=1;resizeHeight=1;" vertex="1" parent="596ySrerEDE0G81WWoC6-46">
          <mxGeometry y="48" width="220" height="25" as="geometry" />
        </mxCell>
        <mxCell id="596ySrerEDE0G81WWoC6-52" value="" style="line;strokeWidth=1;fillColor=#D0CEE2;align=left;verticalAlign=middle;spacingTop=-1;spacingLeft=3;spacingRight=3;rotatable=0;labelPosition=right;points=[];portConstraint=eastwest;strokeColor=#56517e;labelBackgroundColor=none;fontFamily=Courier New;fontSize=14;labelBorderColor=none;textShadow=0;shadow=0;resizeWidth=1;resizeHeight=1;" vertex="1" parent="596ySrerEDE0G81WWoC6-46">
          <mxGeometry y="73" width="220" height="8" as="geometry" />
        </mxCell>
        <mxCell id="596ySrerEDE0G81WWoC6-53" value="required interfaces" style="align=left;spacingLeft=4;verticalAlign=middle;strokeColor=#56517e;fillColor=#D0CEE2;labelBackgroundColor=none;fontFamily=Courier New;fontSize=14;labelBorderColor=none;textShadow=0;shadow=0;resizeWidth=1;resizeHeight=1;" vertex="1" parent="596ySrerEDE0G81WWoC6-46">
          <mxGeometry y="81" width="220" height="25" as="geometry" />
        </mxCell>
        <mxCell id="596ySrerEDE0G81WWoC6-55" value="" style="fontStyle=1;align=left;verticalAlign=middle;childLayout=stackLayout;horizontal=1;horizontalStack=0;resizeParent=1;resizeParentMax=0;resizeLast=0;marginBottom=0;strokeColor=#56517e;fillColor=#D0CEE2;labelBackgroundColor=none;fontFamily=Courier New;fontSize=14;labelBorderColor=none;textShadow=0;shadow=0;resizeWidth=1;resizeHeight=1;" vertex="1" parent="1">
          <mxGeometry x="-110" y="50" width="220" height="106" as="geometry" />
        </mxCell>
        <mxCell id="596ySrerEDE0G81WWoC6-56" value="SimulationController" style="align=left;spacingLeft=4;verticalAlign=middle;strokeColor=#56517e;fillColor=#D0CEE2;labelBackgroundColor=none;fontFamily=Courier New;fontSize=14;labelBorderColor=none;textShadow=0;shadow=0;resizeWidth=1;resizeHeight=1;" vertex="1" parent="596ySrerEDE0G81WWoC6-55">
          <mxGeometry width="220" height="40" as="geometry" />
        </mxCell>
        <mxCell id="596ySrerEDE0G81WWoC6-57" value="" style="shape=module;jettyWidth=10;jettyHeight=4;strokeColor=#56517e;fillColor=#D0CEE2;labelBackgroundColor=none;fontFamily=Courier New;fontSize=14;verticalAlign=middle;align=left;labelBorderColor=none;textShadow=0;shadow=0;resizeWidth=1;resizeHeight=1;" vertex="1" parent="596ySrerEDE0G81WWoC6-56">
          <mxGeometry x="1" width="16" height="20" relative="1" as="geometry">
            <mxPoint x="-25" y="9" as="offset" />
          </mxGeometry>
        </mxCell>
        <mxCell id="596ySrerEDE0G81WWoC6-58" value="" style="line;strokeWidth=1;fillColor=#D0CEE2;align=left;verticalAlign=middle;spacingTop=-1;spacingLeft=3;spacingRight=3;rotatable=0;labelPosition=right;points=[];portConstraint=eastwest;strokeColor=#56517e;labelBackgroundColor=none;fontFamily=Courier New;fontSize=14;labelBorderColor=none;textShadow=0;shadow=0;resizeWidth=1;resizeHeight=1;" vertex="1" parent="596ySrerEDE0G81WWoC6-55">
          <mxGeometry y="40" width="220" height="8" as="geometry" />
        </mxCell>
        <mxCell id="596ySrerEDE0G81WWoC6-59" value="provided interfaces" style="align=left;spacingLeft=4;verticalAlign=middle;strokeColor=#56517e;fillColor=#D0CEE2;labelBackgroundColor=none;fontFamily=Courier New;fontSize=14;labelBorderColor=none;textShadow=0;shadow=0;resizeWidth=1;resizeHeight=1;" vertex="1" parent="596ySrerEDE0G81WWoC6-55">
          <mxGeometry y="48" width="220" height="25" as="geometry" />
        </mxCell>
        <mxCell id="596ySrerEDE0G81WWoC6-61" value="" style="line;strokeWidth=1;fillColor=#D0CEE2;align=left;verticalAlign=middle;spacingTop=-1;spacingLeft=3;spacingRight=3;rotatable=0;labelPosition=right;points=[];portConstraint=eastwest;strokeColor=#56517e;labelBackgroundColor=none;fontFamily=Courier New;fontSize=14;labelBorderColor=none;textShadow=0;shadow=0;resizeWidth=1;resizeHeight=1;" vertex="1" parent="596ySrerEDE0G81WWoC6-55">
          <mxGeometry y="73" width="220" height="8" as="geometry" />
        </mxCell>
        <mxCell id="596ySrerEDE0G81WWoC6-62" value="required interfaces" style="align=left;spacingLeft=4;verticalAlign=middle;strokeColor=#56517e;fillColor=#D0CEE2;labelBackgroundColor=none;fontFamily=Courier New;fontSize=14;labelBorderColor=none;textShadow=0;shadow=0;resizeWidth=1;resizeHeight=1;" vertex="1" parent="596ySrerEDE0G81WWoC6-55">
          <mxGeometry y="81" width="220" height="25" as="geometry" />
        </mxCell>
        <mxCell id="596ySrerEDE0G81WWoC6-64" value="" style="fontStyle=1;align=left;verticalAlign=middle;childLayout=stackLayout;horizontal=1;horizontalStack=0;resizeParent=1;resizeParentMax=0;resizeLast=0;marginBottom=0;strokeColor=#56517e;fillColor=#D0CEE2;labelBackgroundColor=none;fontFamily=Courier New;fontSize=14;labelBorderColor=none;textShadow=0;shadow=0;resizeWidth=1;resizeHeight=1;" vertex="1" parent="1">
          <mxGeometry x="-990" y="210" width="220" height="103" as="geometry" />
        </mxCell>
        <mxCell id="596ySrerEDE0G81WWoC6-65" value="UIController" style="align=left;spacingLeft=4;verticalAlign=middle;strokeColor=#56517e;fillColor=#D0CEE2;labelBackgroundColor=none;fontFamily=Courier New;fontSize=14;labelBorderColor=none;textShadow=0;shadow=0;resizeWidth=1;resizeHeight=1;" vertex="1" parent="596ySrerEDE0G81WWoC6-64">
          <mxGeometry width="220" height="40" as="geometry" />
        </mxCell>
        <mxCell id="596ySrerEDE0G81WWoC6-66" value="" style="shape=module;jettyWidth=10;jettyHeight=4;strokeColor=#56517e;fillColor=#D0CEE2;labelBackgroundColor=none;fontFamily=Courier New;fontSize=14;verticalAlign=middle;align=left;labelBorderColor=none;textShadow=0;shadow=0;resizeWidth=1;resizeHeight=1;" vertex="1" parent="596ySrerEDE0G81WWoC6-65">
          <mxGeometry x="1" width="16" height="20" relative="1" as="geometry">
            <mxPoint x="-25" y="9" as="offset" />
          </mxGeometry>
        </mxCell>
        <mxCell id="596ySrerEDE0G81WWoC6-67" value="" style="line;strokeWidth=1;fillColor=#D0CEE2;align=left;verticalAlign=middle;spacingTop=-1;spacingLeft=3;spacingRight=3;rotatable=0;labelPosition=right;points=[];portConstraint=eastwest;strokeColor=#56517e;labelBackgroundColor=none;fontFamily=Courier New;fontSize=14;labelBorderColor=none;textShadow=0;shadow=0;resizeWidth=1;resizeHeight=1;" vertex="1" parent="596ySrerEDE0G81WWoC6-65">
          <mxGeometry y="32" width="220" height="8" as="geometry" />
        </mxCell>
        <mxCell id="596ySrerEDE0G81WWoC6-69" value="provided interfaces" style="align=left;spacingLeft=4;verticalAlign=middle;strokeColor=#56517e;fillColor=#D0CEE2;labelBackgroundColor=none;fontFamily=Courier New;fontSize=14;labelBorderColor=none;textShadow=0;shadow=0;resizeWidth=1;resizeHeight=1;" vertex="1" parent="596ySrerEDE0G81WWoC6-64">
          <mxGeometry y="40" width="220" height="25" as="geometry" />
        </mxCell>
        <mxCell id="596ySrerEDE0G81WWoC6-70" value="" style="line;strokeWidth=1;fillColor=#D0CEE2;align=left;verticalAlign=middle;spacingTop=-1;spacingLeft=3;spacingRight=3;rotatable=0;labelPosition=right;points=[];portConstraint=eastwest;strokeColor=#56517e;labelBackgroundColor=none;fontFamily=Courier New;fontSize=14;labelBorderColor=none;textShadow=0;shadow=0;resizeWidth=1;resizeHeight=1;" vertex="1" parent="596ySrerEDE0G81WWoC6-64">
          <mxGeometry y="65" width="220" height="8" as="geometry" />
        </mxCell>
        <mxCell id="596ySrerEDE0G81WWoC6-72" value="required interfaces" style="align=left;spacingLeft=4;verticalAlign=middle;strokeColor=#56517e;fillColor=#D0CEE2;labelBackgroundColor=none;fontFamily=Courier New;fontSize=14;labelBorderColor=none;textShadow=0;shadow=0;resizeWidth=1;resizeHeight=1;" vertex="1" parent="596ySrerEDE0G81WWoC6-64">
          <mxGeometry y="73" width="220" height="30" as="geometry" />
        </mxCell>
        <mxCell id="596ySrerEDE0G81WWoC6-80" value="" style="fontStyle=1;align=left;verticalAlign=middle;childLayout=stackLayout;horizontal=1;horizontalStack=0;resizeParent=1;resizeParentMax=0;resizeLast=0;marginBottom=0;strokeColor=#56517e;fillColor=#D0CEE2;labelBackgroundColor=none;fontFamily=Courier New;fontSize=14;labelBorderColor=none;textShadow=0;shadow=0;resizeWidth=1;resizeHeight=1;" vertex="1" parent="1">
          <mxGeometry x="800" y="425" width="220" height="106" as="geometry" />
        </mxCell>
        <mxCell id="596ySrerEDE0G81WWoC6-81" value="EvolutionEngine" style="align=left;spacingLeft=4;verticalAlign=middle;strokeColor=#56517e;fillColor=#D0CEE2;labelBackgroundColor=none;fontFamily=Courier New;fontSize=14;labelBorderColor=none;textShadow=0;shadow=0;resizeWidth=1;resizeHeight=1;" vertex="1" parent="596ySrerEDE0G81WWoC6-80">
          <mxGeometry width="220" height="40" as="geometry" />
        </mxCell>
        <mxCell id="596ySrerEDE0G81WWoC6-82" value="" style="shape=module;jettyWidth=10;jettyHeight=4;strokeColor=#56517e;fillColor=#D0CEE2;labelBackgroundColor=none;fontFamily=Courier New;fontSize=14;verticalAlign=middle;align=left;labelBorderColor=none;textShadow=0;shadow=0;resizeWidth=1;resizeHeight=1;" vertex="1" parent="596ySrerEDE0G81WWoC6-81">
          <mxGeometry x="1" width="16" height="20" relative="1" as="geometry">
            <mxPoint x="-25" y="9" as="offset" />
          </mxGeometry>
        </mxCell>
        <mxCell id="596ySrerEDE0G81WWoC6-83" value="" style="line;strokeWidth=1;fillColor=#D0CEE2;align=left;verticalAlign=middle;spacingTop=-1;spacingLeft=3;spacingRight=3;rotatable=0;labelPosition=right;points=[];portConstraint=eastwest;strokeColor=#56517e;labelBackgroundColor=none;fontFamily=Courier New;fontSize=14;labelBorderColor=none;textShadow=0;shadow=0;resizeWidth=1;resizeHeight=1;" vertex="1" parent="596ySrerEDE0G81WWoC6-80">
          <mxGeometry y="40" width="220" height="8" as="geometry" />
        </mxCell>
        <mxCell id="596ySrerEDE0G81WWoC6-84" value="provided interfaces" style="align=left;spacingLeft=4;verticalAlign=middle;strokeColor=#56517e;fillColor=#D0CEE2;labelBackgroundColor=none;fontFamily=Courier New;fontSize=14;labelBorderColor=none;textShadow=0;shadow=0;resizeWidth=1;resizeHeight=1;" vertex="1" parent="596ySrerEDE0G81WWoC6-80">
          <mxGeometry y="48" width="220" height="25" as="geometry" />
        </mxCell>
        <mxCell id="596ySrerEDE0G81WWoC6-85" value="" style="line;strokeWidth=1;fillColor=#D0CEE2;align=left;verticalAlign=middle;spacingTop=-1;spacingLeft=3;spacingRight=3;rotatable=0;labelPosition=right;points=[];portConstraint=eastwest;strokeColor=#56517e;labelBackgroundColor=none;fontFamily=Courier New;fontSize=14;labelBorderColor=none;textShadow=0;shadow=0;resizeWidth=1;resizeHeight=1;" vertex="1" parent="596ySrerEDE0G81WWoC6-80">
          <mxGeometry y="73" width="220" height="8" as="geometry" />
        </mxCell>
        <mxCell id="596ySrerEDE0G81WWoC6-86" value="required interfaces" style="align=left;spacingLeft=4;verticalAlign=middle;strokeColor=#56517e;fillColor=#D0CEE2;labelBackgroundColor=none;fontFamily=Courier New;fontSize=14;labelBorderColor=none;textShadow=0;shadow=0;resizeWidth=1;resizeHeight=1;" vertex="1" parent="596ySrerEDE0G81WWoC6-80">
          <mxGeometry y="81" width="220" height="25" as="geometry" />
        </mxCell>
        <mxCell id="596ySrerEDE0G81WWoC6-87" value="" style="fontStyle=1;align=left;verticalAlign=middle;childLayout=stackLayout;horizontal=1;horizontalStack=0;resizeParent=1;resizeParentMax=0;resizeLast=0;marginBottom=0;strokeColor=#56517e;fillColor=#D0CEE2;labelBackgroundColor=none;fontFamily=Courier New;fontSize=14;labelBorderColor=none;textShadow=0;shadow=0;resizeWidth=1;resizeHeight=1;" vertex="1" parent="1">
          <mxGeometry x="-990" y="650" width="220" height="106" as="geometry" />
        </mxCell>
        <mxCell id="596ySrerEDE0G81WWoC6-88" value="DiseaseDatabase" style="align=left;spacingLeft=4;verticalAlign=middle;strokeColor=#56517e;fillColor=#D0CEE2;labelBackgroundColor=none;fontFamily=Courier New;fontSize=14;labelBorderColor=none;textShadow=0;shadow=0;resizeWidth=1;resizeHeight=1;" vertex="1" parent="596ySrerEDE0G81WWoC6-87">
          <mxGeometry width="220" height="40" as="geometry" />
        </mxCell>
        <mxCell id="596ySrerEDE0G81WWoC6-89" value="" style="shape=module;jettyWidth=10;jettyHeight=4;strokeColor=#56517e;fillColor=#D0CEE2;labelBackgroundColor=none;fontFamily=Courier New;fontSize=14;verticalAlign=middle;align=left;labelBorderColor=none;textShadow=0;shadow=0;resizeWidth=1;resizeHeight=1;" vertex="1" parent="596ySrerEDE0G81WWoC6-88">
          <mxGeometry x="1" width="16" height="20" relative="1" as="geometry">
            <mxPoint x="-25" y="9" as="offset" />
          </mxGeometry>
        </mxCell>
        <mxCell id="596ySrerEDE0G81WWoC6-90" value="" style="line;strokeWidth=1;fillColor=#D0CEE2;align=left;verticalAlign=middle;spacingTop=-1;spacingLeft=3;spacingRight=3;rotatable=0;labelPosition=right;points=[];portConstraint=eastwest;strokeColor=#56517e;labelBackgroundColor=none;fontFamily=Courier New;fontSize=14;labelBorderColor=none;textShadow=0;shadow=0;resizeWidth=1;resizeHeight=1;" vertex="1" parent="596ySrerEDE0G81WWoC6-87">
          <mxGeometry y="40" width="220" height="8" as="geometry" />
        </mxCell>
        <mxCell id="596ySrerEDE0G81WWoC6-91" value="provided interfaces" style="align=left;spacingLeft=4;verticalAlign=middle;strokeColor=#56517e;fillColor=#D0CEE2;labelBackgroundColor=none;fontFamily=Courier New;fontSize=14;labelBorderColor=none;textShadow=0;shadow=0;resizeWidth=1;resizeHeight=1;" vertex="1" parent="596ySrerEDE0G81WWoC6-87">
          <mxGeometry y="48" width="220" height="25" as="geometry" />
        </mxCell>
        <mxCell id="596ySrerEDE0G81WWoC6-92" value="" style="line;strokeWidth=1;fillColor=#D0CEE2;align=left;verticalAlign=middle;spacingTop=-1;spacingLeft=3;spacingRight=3;rotatable=0;labelPosition=right;points=[];portConstraint=eastwest;strokeColor=#56517e;labelBackgroundColor=none;fontFamily=Courier New;fontSize=14;labelBorderColor=none;textShadow=0;shadow=0;resizeWidth=1;resizeHeight=1;" vertex="1" parent="596ySrerEDE0G81WWoC6-87">
          <mxGeometry y="73" width="220" height="8" as="geometry" />
        </mxCell>
        <mxCell id="596ySrerEDE0G81WWoC6-93" value="required interfaces" style="align=left;spacingLeft=4;verticalAlign=middle;strokeColor=#56517e;fillColor=#D0CEE2;labelBackgroundColor=none;fontFamily=Courier New;fontSize=14;labelBorderColor=none;textShadow=0;shadow=0;resizeWidth=1;resizeHeight=1;" vertex="1" parent="596ySrerEDE0G81WWoC6-87">
          <mxGeometry y="81" width="220" height="25" as="geometry" />
        </mxCell>
        <mxCell id="596ySrerEDE0G81WWoC6-94" style="edgeStyle=orthogonalEdgeStyle;rounded=0;orthogonalLoop=1;jettySize=auto;html=1;exitX=0.5;exitY=1;exitDx=0;exitDy=0;entryX=0.389;entryY=1.096;entryDx=0;entryDy=0;entryPerimeter=0;strokeColor=#788AA3;fontColor=#46495D;fillColor=#B2C9AB;fontFamily=Courier New;labelBackgroundColor=none;" edge="1" parent="596ySrerEDE0G81WWoC6-87" source="596ySrerEDE0G81WWoC6-91" target="596ySrerEDE0G81WWoC6-91">
          <mxGeometry relative="1" as="geometry" />
        </mxCell>
        <mxCell id="596ySrerEDE0G81WWoC6-95" value="&lt;b&gt;ISimulationControl&lt;/b&gt;" style="html=1;whiteSpace=wrap;strokeColor=#788AA3;fontColor=#46495D;fillColor=#B2C9AB;fontFamily=Courier New;labelBackgroundColor=none;" vertex="1" parent="1">
          <mxGeometry x="-640" y="90" width="160" height="50" as="geometry" />
        </mxCell>
        <mxCell id="596ySrerEDE0G81WWoC6-97" value="" style="endArrow=none;dashed=1;html=1;rounded=0;strokeColor=#330066;fontColor=#46495D;fillColor=#B2C9AB;exitX=1;exitY=0.5;exitDx=0;exitDy=0;entryX=0;entryY=0.5;entryDx=0;entryDy=0;fontFamily=Courier New;labelBackgroundColor=none;" edge="1" parent="1" source="596ySrerEDE0G81WWoC6-95" target="596ySrerEDE0G81WWoC6-59">
          <mxGeometry width="50" height="50" relative="1" as="geometry">
            <mxPoint x="-480" y="248" as="sourcePoint" />
            <mxPoint x="-170" y="85" as="targetPoint" />
            <Array as="points">
              <mxPoint x="-480" y="110" />
              <mxPoint x="-400" y="110" />
              <mxPoint x="-400" y="160" />
              <mxPoint x="-200" y="160" />
              <mxPoint x="-200" y="111" />
            </Array>
          </mxGeometry>
        </mxCell>
        <mxCell id="596ySrerEDE0G81WWoC6-100" value="" style="endArrow=none;dashed=1;html=1;rounded=0;strokeColor=#330066;fontColor=#46495D;fillColor=#B2C9AB;exitX=1;exitY=0.25;exitDx=0;exitDy=0;entryX=0;entryY=0.6;entryDx=0;entryDy=0;entryPerimeter=0;fontFamily=Courier New;labelBackgroundColor=none;" edge="1" parent="1" source="596ySrerEDE0G81WWoC6-72" target="596ySrerEDE0G81WWoC6-95">
          <mxGeometry width="50" height="50" relative="1" as="geometry">
            <mxPoint x="-745" y="275" as="sourcePoint" />
            <mxPoint x="-375" y="271" as="targetPoint" />
            <Array as="points">
              <mxPoint x="-720" y="290" />
              <mxPoint x="-720" y="120" />
            </Array>
          </mxGeometry>
        </mxCell>
        <mxCell id="596ySrerEDE0G81WWoC6-101" value="&lt;b&gt;ISimulationAccess&lt;/b&gt;" style="html=1;whiteSpace=wrap;strokeColor=#788AA3;fontColor=#46495D;fillColor=#B2C9AB;fontFamily=Courier New;labelBackgroundColor=none;" vertex="1" parent="1">
          <mxGeometry x="-640" y="-42" width="160" height="50" as="geometry" />
        </mxCell>
        <mxCell id="596ySrerEDE0G81WWoC6-105" value="" style="endArrow=none;dashed=1;html=1;rounded=0;strokeColor=#330066;fontColor=#46495D;fillColor=#B2C9AB;exitX=1;exitY=0.5;exitDx=0;exitDy=0;entryX=0;entryY=0.5;entryDx=0;entryDy=0;fontFamily=Courier New;labelBackgroundColor=none;" edge="1" parent="1">
          <mxGeometry width="50" height="50" relative="1" as="geometry">
            <mxPoint x="-480" y="-17.500000000000227" as="sourcePoint" />
            <mxPoint x="-110" y="110.00000000000023" as="targetPoint" />
            <Array as="points">
              <mxPoint x="-400" y="-17.5" />
              <mxPoint x="-400" y="-60.5" />
              <mxPoint x="-200" y="-60.5" />
              <mxPoint x="-200" y="109.5" />
            </Array>
          </mxGeometry>
        </mxCell>
        <mxCell id="596ySrerEDE0G81WWoC6-106" value="" style="endArrow=none;dashed=1;html=1;rounded=0;strokeColor=#330066;align=center;verticalAlign=middle;fontFamily=Courier New;fontSize=11;fontColor=#46495D;labelBackgroundColor=none;entryX=0;entryY=0.5;entryDx=0;entryDy=0;exitX=1;exitY=0.5;exitDx=0;exitDy=0;" edge="1" parent="1" source="596ySrerEDE0G81WWoC6-26" target="596ySrerEDE0G81WWoC6-101">
          <mxGeometry width="50" height="50" relative="1" as="geometry">
            <mxPoint x="-690" y="36" as="sourcePoint" />
            <mxPoint x="-640" y="-14" as="targetPoint" />
            <Array as="points">
              <mxPoint x="-800" y="24" />
              <mxPoint x="-800" y="-17" />
            </Array>
          </mxGeometry>
        </mxCell>
        <mxCell id="596ySrerEDE0G81WWoC6-107" value="" style="endArrow=none;dashed=1;html=1;rounded=0;strokeColor=#330066;align=center;verticalAlign=middle;fontFamily=Courier New;fontSize=11;fontColor=#46495D;labelBackgroundColor=none;entryX=0;entryY=0.5;entryDx=0;entryDy=0;exitX=0;exitY=0.5;exitDx=0;exitDy=0;" edge="1" parent="1" source="596ySrerEDE0G81WWoC6-44" target="596ySrerEDE0G81WWoC6-101">
          <mxGeometry width="50" height="50" relative="1" as="geometry">
            <mxPoint x="-860" y="3.5" as="sourcePoint" />
            <mxPoint x="-640" y="-37.5" as="targetPoint" />
            <Array as="points">
              <mxPoint x="-840" y="-146" />
              <mxPoint x="-840" y="-17" />
              <mxPoint x="-800" y="-17" />
            </Array>
          </mxGeometry>
        </mxCell>
        <mxCell id="596ySrerEDE0G81WWoC6-108" value="&lt;b&gt;IDisease&lt;/b&gt;" style="html=1;whiteSpace=wrap;strokeColor=#788AA3;fontColor=#46495D;fillColor=#B2C9AB;fontFamily=Courier New;labelBackgroundColor=none;" vertex="1" parent="1">
          <mxGeometry x="-380" y="400" width="160" height="50" as="geometry" />
        </mxCell>
        <mxCell id="596ySrerEDE0G81WWoC6-109" value="" style="endArrow=none;dashed=1;html=1;rounded=0;strokeColor=#330066;align=center;verticalAlign=middle;fontFamily=Courier New;fontSize=11;fontColor=#46495D;labelBackgroundColor=none;entryX=0;entryY=0.5;entryDx=0;entryDy=0;exitX=1;exitY=0.5;exitDx=0;exitDy=0;" edge="1" parent="1" source="596ySrerEDE0G81WWoC6-108" target="596ySrerEDE0G81WWoC6-62">
          <mxGeometry width="50" height="50" relative="1" as="geometry">
            <mxPoint x="-190" y="378" as="sourcePoint" />
            <mxPoint x="-140" y="328" as="targetPoint" />
            <Array as="points">
              <mxPoint x="-160" y="425" />
              <mxPoint x="-160" y="144" />
            </Array>
          </mxGeometry>
        </mxCell>
        <mxCell id="596ySrerEDE0G81WWoC6-110" value="" style="endArrow=none;dashed=1;html=1;rounded=0;strokeColor=#330066;align=center;verticalAlign=middle;fontFamily=Courier New;fontSize=11;fontColor=#46495D;labelBackgroundColor=none;exitX=1;exitY=0.5;exitDx=0;exitDy=0;entryX=0;entryY=0.5;entryDx=0;entryDy=0;" edge="1" parent="1" source="596ySrerEDE0G81WWoC6-62" target="596ySrerEDE0G81WWoC6-113">
          <mxGeometry width="50" height="50" relative="1" as="geometry">
            <mxPoint x="130" y="156" as="sourcePoint" />
            <mxPoint x="180" y="106" as="targetPoint" />
            <Array as="points">
              <mxPoint x="160" y="144" />
              <mxPoint x="160" y="85" />
            </Array>
          </mxGeometry>
        </mxCell>
        <mxCell id="596ySrerEDE0G81WWoC6-111" value="" style="endArrow=none;dashed=1;html=1;rounded=0;strokeColor=#330066;align=center;verticalAlign=middle;fontFamily=Courier New;fontSize=11;fontColor=#46495D;labelBackgroundColor=none;entryX=1;entryY=0.5;entryDx=0;entryDy=0;exitX=0;exitY=0.5;exitDx=0;exitDy=0;" edge="1" parent="1" source="596ySrerEDE0G81WWoC6-117" target="596ySrerEDE0G81WWoC6-62">
          <mxGeometry width="50" height="50" relative="1" as="geometry">
            <mxPoint x="210" y="286.5" as="sourcePoint" />
            <mxPoint x="260" y="236.5" as="targetPoint" />
            <Array as="points">
              <mxPoint x="350" y="381" />
              <mxPoint x="350" y="180" />
              <mxPoint x="160" y="180" />
              <mxPoint x="160" y="144" />
            </Array>
          </mxGeometry>
        </mxCell>
        <mxCell id="596ySrerEDE0G81WWoC6-112" value="" style="endArrow=none;dashed=1;html=1;rounded=0;strokeColor=#330066;align=center;verticalAlign=middle;fontFamily=Courier New;fontSize=11;fontColor=#46495D;labelBackgroundColor=none;entryX=0;entryY=0.5;entryDx=0;entryDy=0;exitX=0;exitY=0.5;exitDx=0;exitDy=0;" edge="1" parent="1" source="596ySrerEDE0G81WWoC6-5" target="596ySrerEDE0G81WWoC6-108">
          <mxGeometry width="50" height="50" relative="1" as="geometry">
            <mxPoint x="-430" y="560" as="sourcePoint" />
            <mxPoint x="-380" y="510" as="targetPoint" />
            <Array as="points">
              <mxPoint x="-410" y="657" />
              <mxPoint x="-410" y="425" />
            </Array>
          </mxGeometry>
        </mxCell>
        <mxCell id="596ySrerEDE0G81WWoC6-113" value="&lt;b&gt;IPopulationAccess&lt;/b&gt;" style="html=1;whiteSpace=wrap;strokeColor=#788AA3;fontColor=#46495D;fillColor=#B2C9AB;fontFamily=Courier New;labelBackgroundColor=none;" vertex="1" parent="1">
          <mxGeometry x="180" y="60" width="160" height="50" as="geometry" />
        </mxCell>
        <mxCell id="596ySrerEDE0G81WWoC6-115" value="" style="endArrow=none;dashed=1;html=1;rounded=0;strokeColor=#330066;align=center;verticalAlign=middle;fontFamily=Courier New;fontSize=11;fontColor=#46495D;labelBackgroundColor=none;entryX=0;entryY=0.5;entryDx=0;entryDy=0;exitX=1;exitY=0.5;exitDx=0;exitDy=0;" edge="1" parent="1" source="596ySrerEDE0G81WWoC6-117" target="596ySrerEDE0G81WWoC6-84">
          <mxGeometry width="50" height="50" relative="1" as="geometry">
            <mxPoint x="560" y="528" as="sourcePoint" />
            <mxPoint x="610" y="478" as="targetPoint" />
            <Array as="points">
              <mxPoint x="720" y="381" />
              <mxPoint x="720" y="486" />
            </Array>
          </mxGeometry>
        </mxCell>
        <mxCell id="596ySrerEDE0G81WWoC6-116" value="" style="endArrow=none;dashed=1;html=1;rounded=0;strokeColor=#330066;align=center;verticalAlign=middle;fontFamily=Courier New;fontSize=11;fontColor=#46495D;labelBackgroundColor=none;entryX=0;entryY=0.5;entryDx=0;entryDy=0;exitX=1;exitY=0.5;exitDx=0;exitDy=0;" edge="1" parent="1" source="596ySrerEDE0G81WWoC6-113" target="596ySrerEDE0G81WWoC6-50">
          <mxGeometry width="50" height="50" relative="1" as="geometry">
            <mxPoint x="300" y="188" as="sourcePoint" />
            <mxPoint x="350" y="138" as="targetPoint" />
            <Array as="points">
              <mxPoint x="360" y="85" />
              <mxPoint x="490" y="85" />
              <mxPoint x="490" y="41" />
            </Array>
          </mxGeometry>
        </mxCell>
        <mxCell id="596ySrerEDE0G81WWoC6-117" value="&lt;b&gt;IEvolutionModel&lt;/b&gt;" style="html=1;whiteSpace=wrap;strokeColor=#788AA3;fontColor=#46495D;fillColor=#B2C9AB;fontFamily=Courier New;labelBackgroundColor=none;" vertex="1" parent="1">
          <mxGeometry x="510" y="356" width="160" height="50" as="geometry" />
        </mxCell>
        <mxCell id="596ySrerEDE0G81WWoC6-118" value="" style="endArrow=none;dashed=1;html=1;rounded=0;strokeColor=#330066;align=center;verticalAlign=middle;fontFamily=Courier New;fontSize=11;fontColor=#46495D;labelBackgroundColor=none;entryX=1;entryY=0.5;entryDx=0;entryDy=0;exitX=0;exitY=0.25;exitDx=0;exitDy=0;" edge="1" parent="1" source="596ySrerEDE0G81WWoC6-14" target="596ySrerEDE0G81WWoC6-121">
          <mxGeometry width="50" height="50" relative="1" as="geometry">
            <mxPoint x="60" y="340" as="sourcePoint" />
            <mxPoint x="110" y="290" as="targetPoint" />
            <Array as="points">
              <mxPoint x="90" y="460" />
              <mxPoint x="90" y="275" />
            </Array>
          </mxGeometry>
        </mxCell>
        <mxCell id="596ySrerEDE0G81WWoC6-120" value="" style="endArrow=none;dashed=1;html=1;rounded=0;strokeColor=#330066;align=center;verticalAlign=middle;fontFamily=Courier New;fontSize=11;fontColor=#46495D;labelBackgroundColor=none;entryX=0;entryY=0.5;entryDx=0;entryDy=0;exitX=0;exitY=0.5;exitDx=0;exitDy=0;" edge="1" parent="1" source="596ySrerEDE0G81WWoC6-121" target="596ySrerEDE0G81WWoC6-62">
          <mxGeometry width="50" height="50" relative="1" as="geometry">
            <mxPoint y="290" as="sourcePoint" />
            <mxPoint x="-110" y="150" as="targetPoint" />
            <Array as="points">
              <mxPoint x="-160" y="275" />
              <mxPoint x="-160" y="144" />
            </Array>
          </mxGeometry>
        </mxCell>
        <mxCell id="596ySrerEDE0G81WWoC6-121" value="&lt;b&gt;IInterventionControl&lt;/b&gt;" style="html=1;whiteSpace=wrap;strokeColor=#788AA3;fontColor=#46495D;fillColor=#B2C9AB;fontFamily=Courier New;labelBackgroundColor=none;" vertex="1" parent="1">
          <mxGeometry x="-100" y="250" width="160" height="50" as="geometry" />
        </mxCell>
        <mxCell id="596ySrerEDE0G81WWoC6-122" value="" style="endArrow=none;dashed=1;html=1;dashPattern=1 3;strokeWidth=3;rounded=0;strokeColor=#B5739D;align=center;verticalAlign=middle;fontFamily=Courier New;fontSize=11;fontColor=#46495D;labelBackgroundColor=none;entryX=0;entryY=0.5;entryDx=0;entryDy=0;exitX=1;exitY=0.5;exitDx=0;exitDy=0;" edge="1" parent="1" source="596ySrerEDE0G81WWoC6-29" target="596ySrerEDE0G81WWoC6-56">
          <mxGeometry width="50" height="50" relative="1" as="geometry">
            <mxPoint x="-600" y="356" as="sourcePoint" />
            <mxPoint x="-550" y="306" as="targetPoint" />
            <Array as="points">
              <mxPoint x="-460" y="470" />
              <mxPoint x="-460" y="70" />
            </Array>
          </mxGeometry>
        </mxCell>
        <mxCell id="596ySrerEDE0G81WWoC6-123" value="" style="endArrow=none;dashed=1;html=1;dashPattern=1 3;strokeWidth=3;rounded=0;strokeColor=#B5739D;align=center;verticalAlign=middle;fontFamily=Courier New;fontSize=11;fontColor=#46495D;labelBackgroundColor=none;entryX=0;entryY=0.5;entryDx=0;entryDy=0;" edge="1" parent="1" target="596ySrerEDE0G81WWoC6-20">
          <mxGeometry width="50" height="50" relative="1" as="geometry">
            <mxPoint x="-1150" y="-50" as="sourcePoint" />
            <mxPoint x="-1100" y="-50" as="targetPoint" />
          </mxGeometry>
        </mxCell>
        <mxCell id="596ySrerEDE0G81WWoC6-124" value="" style="endArrow=none;dashed=1;html=1;dashPattern=1 3;strokeWidth=3;rounded=0;strokeColor=#B5739D;align=center;verticalAlign=middle;fontFamily=Courier New;fontSize=11;fontColor=#46495D;labelBackgroundColor=none;exitX=1;exitY=0.5;exitDx=0;exitDy=0;" edge="1" parent="1" source="596ySrerEDE0G81WWoC6-2">
          <mxGeometry width="50" height="50" relative="1" as="geometry">
            <mxPoint x="-25" y="620" as="sourcePoint" />
            <mxPoint x="510" as="targetPoint" />
            <Array as="points">
              <mxPoint x="440" y="616" />
              <mxPoint x="440" />
            </Array>
          </mxGeometry>
        </mxCell>
        <mxCell id="596ySrerEDE0G81WWoC6-125" value="" style="endArrow=none;dashed=1;html=1;dashPattern=1 3;strokeWidth=3;rounded=0;strokeColor=#B5739D;align=center;verticalAlign=middle;fontFamily=Courier New;fontSize=11;fontColor=#46495D;labelBackgroundColor=none;entryX=0;entryY=0.5;entryDx=0;entryDy=0;exitX=0.875;exitY=0.5;exitDx=0;exitDy=0;exitPerimeter=0;" edge="1" parent="1" source="596ySrerEDE0G81WWoC6-127" target="596ySrerEDE0G81WWoC6-65">
          <mxGeometry width="50" height="50" relative="1" as="geometry">
            <mxPoint x="-1070" y="230" as="sourcePoint" />
            <mxPoint x="-1010" y="236.5" as="targetPoint" />
          </mxGeometry>
        </mxCell>
        <mxCell id="596ySrerEDE0G81WWoC6-126" value="" style="endArrow=none;dashed=1;html=1;dashPattern=1 3;strokeWidth=3;rounded=0;strokeColor=#B5739D;align=center;verticalAlign=middle;fontFamily=Courier New;fontSize=11;fontColor=#46495D;labelBackgroundColor=none;entryX=0;entryY=0.5;entryDx=0;entryDy=0;exitX=1;exitY=0.5;exitDx=0;exitDy=0;" edge="1" parent="1" source="596ySrerEDE0G81WWoC6-88" target="596ySrerEDE0G81WWoC6-29">
          <mxGeometry width="50" height="50" relative="1" as="geometry">
            <mxPoint x="-870" y="480" as="sourcePoint" />
            <mxPoint x="-820" y="430" as="targetPoint" />
            <Array as="points">
              <mxPoint x="-750" y="670" />
              <mxPoint x="-750" y="470" />
            </Array>
          </mxGeometry>
        </mxCell>
        <mxCell id="596ySrerEDE0G81WWoC6-127" value="&lt;span style=&quot;&quot;&gt;&lt;span style=&quot;&quot;&gt;User input&lt;br&gt;&lt;/span&gt;&lt;/span&gt;" style="ellipse;shape=cloud;whiteSpace=wrap;html=1;strokeColor=#788AA3;fontFamily=Courier New;fontSize=11;fontColor=#46495D;labelBackgroundColor=none;fillColor=#B2C9AB;" vertex="1" parent="1">
          <mxGeometry x="-1180" y="190" width="120" height="80" as="geometry" />
        </mxCell>
        <mxCell id="596ySrerEDE0G81WWoC6-128" value="" style="endArrow=none;dashed=1;html=1;dashPattern=1 3;strokeWidth=3;rounded=0;strokeColor=#B5739D;align=center;verticalAlign=middle;fontFamily=Courier New;fontSize=11;fontColor=#46495D;labelBackgroundColor=none;exitX=1;exitY=0.5;exitDx=0;exitDy=0;entryX=0;entryY=0.5;entryDx=0;entryDy=0;" edge="1" parent="1" source="596ySrerEDE0G81WWoC6-2" target="596ySrerEDE0G81WWoC6-11">
          <mxGeometry width="50" height="50" relative="1" as="geometry">
            <mxPoint x="-45" y="562" as="sourcePoint" />
            <mxPoint x="5" y="512" as="targetPoint" />
            <Array as="points">
              <mxPoint x="40" y="616" />
              <mxPoint x="40" y="426" />
            </Array>
          </mxGeometry>
        </mxCell>
        <mxCell id="596ySrerEDE0G81WWoC6-130" value="" style="endArrow=none;dashed=1;html=1;dashPattern=1 3;strokeWidth=3;rounded=0;strokeColor=#B5739D;align=center;verticalAlign=middle;fontFamily=Courier New;fontSize=11;fontColor=#46495D;labelBackgroundColor=none;exitX=1;exitY=0.5;exitDx=0;exitDy=0;entryX=0;entryY=0.5;entryDx=0;entryDy=0;" edge="1" parent="1" source="596ySrerEDE0G81WWoC6-47" target="596ySrerEDE0G81WWoC6-81">
          <mxGeometry width="50" height="50" relative="1" as="geometry">
            <mxPoint x="780" y="280" as="sourcePoint" />
            <mxPoint x="830" y="230" as="targetPoint" />
            <Array as="points">
              <mxPoint x="770" />
              <mxPoint x="770" y="445" />
            </Array>
          </mxGeometry>
        </mxCell>
        <mxCell id="596ySrerEDE0G81WWoC6-131" value="" style="endArrow=none;dashed=1;html=1;dashPattern=1 3;strokeWidth=3;rounded=0;strokeColor=#B5739D;align=center;verticalAlign=middle;fontFamily=Courier New;fontSize=11;fontColor=#46495D;labelBackgroundColor=none;exitX=1;exitY=0.5;exitDx=0;exitDy=0;entryX=0;entryY=0.5;entryDx=0;entryDy=0;" edge="1" parent="1" source="596ySrerEDE0G81WWoC6-11" target="596ySrerEDE0G81WWoC6-47">
          <mxGeometry width="50" height="50" relative="1" as="geometry">
            <mxPoint x="380" y="300" as="sourcePoint" />
            <mxPoint x="430" y="250" as="targetPoint" />
            <Array as="points">
              <mxPoint x="380" y="426" />
              <mxPoint x="380" />
            </Array>
          </mxGeometry>
        </mxCell>
        <mxCell id="596ySrerEDE0G81WWoC6-134" value="&lt;span&gt;Relationship with the core of the simulation&lt;br&gt;&lt;/span&gt;" style="text;strokeColor=none;fillColor=none;align=left;verticalAlign=middle;spacingLeft=4;spacingRight=4;overflow=hidden;points=[[0,0.5],[1,0.5]];portConstraint=eastwest;rotatable=0;whiteSpace=wrap;html=1;fontFamily=Courier New;fontSize=11;fontColor=#46495D;labelBackgroundColor=none;" vertex="1" parent="1">
          <mxGeometry x="820" y="-270" width="310" height="30" as="geometry" />
        </mxCell>
        <mxCell id="596ySrerEDE0G81WWoC6-135" value="" style="endArrow=none;dashed=1;html=1;rounded=0;strokeColor=default;align=center;verticalAlign=middle;fontFamily=Courier New;fontSize=11;fontColor=#330066;labelBackgroundColor=none;" edge="1" parent="1">
          <mxGeometry width="50" height="50" relative="1" as="geometry">
            <mxPoint x="790" y="-255.25" as="sourcePoint" />
            <mxPoint x="820" y="-255.25" as="targetPoint" />
          </mxGeometry>
        </mxCell>
        <mxCell id="596ySrerEDE0G81WWoC6-137" value="Need to be able to pass information " style="text;strokeColor=none;fillColor=none;align=left;verticalAlign=middle;spacingLeft=4;spacingRight=4;overflow=hidden;points=[[0,0.5],[1,0.5]];portConstraint=eastwest;rotatable=0;whiteSpace=wrap;html=1;fontFamily=Courier New;fontSize=11;fontColor=#46495D;labelBackgroundColor=none;" vertex="1" parent="1">
          <mxGeometry x="820" y="-240" width="260" height="30" as="geometry" />
        </mxCell>
        <mxCell id="596ySrerEDE0G81WWoC6-129" value="" style="endArrow=none;dashed=1;html=1;dashPattern=1 3;strokeWidth=3;rounded=0;strokeColor=#B5739D;align=center;verticalAlign=middle;fontFamily=Courier New;fontSize=11;fontColor=#46495D;labelBackgroundColor=none;" edge="1" parent="1">
          <mxGeometry width="50" height="50" relative="1" as="geometry">
            <mxPoint x="790" y="-225.25" as="sourcePoint" />
            <mxPoint x="820" y="-225.25" as="targetPoint" />
          </mxGeometry>
        </mxCell>
        <mxCell id="596ySrerEDE0G81WWoC6-138" value="«interface»" style="html=1;whiteSpace=wrap;strokeColor=#788AA3;fontFamily=Courier New;fontSize=11;fontColor=#46495D;labelBackgroundColor=none;fillColor=#B2C9AB;" vertex="1" parent="1">
          <mxGeometry x="790" y="-204" width="80" height="34" as="geometry" />
        </mxCell>
        <mxCell id="596ySrerEDE0G81WWoC6-139" value="" style="shape=module;align=left;spacingLeft=20;align=center;verticalAlign=top;whiteSpace=wrap;html=1;strokeColor=#788AA3;fontFamily=Courier New;fontSize=11;fontColor=#46495D;labelBackgroundColor=none;fillColor=#D0CEE2;" vertex="1" parent="1">
          <mxGeometry x="790" y="-320" width="40" height="50" as="geometry" />
        </mxCell>
        <mxCell id="596ySrerEDE0G81WWoC6-140" value="Indicates a component of the software" style="text;strokeColor=none;fillColor=none;align=left;verticalAlign=middle;spacingLeft=4;spacingRight=4;overflow=hidden;points=[[0,0.5],[1,0.5]];portConstraint=eastwest;rotatable=0;whiteSpace=wrap;html=1;fontFamily=Courier New;fontSize=11;fontColor=#46495D;labelBackgroundColor=none;" vertex="1" parent="1">
          <mxGeometry x="840" y="-310" width="290" height="30" as="geometry" />
        </mxCell>
        <mxCell id="596ySrerEDE0G81WWoC6-143" value="Short legend" style="text;strokeColor=none;fillColor=none;align=left;verticalAlign=middle;spacingLeft=4;spacingRight=4;overflow=hidden;points=[[0,0.5],[1,0.5]];portConstraint=eastwest;rotatable=0;whiteSpace=wrap;html=1;fontFamily=Courier New;fontSize=11;fontColor=#46495D;labelBackgroundColor=none;" vertex="1" parent="1">
          <mxGeometry x="790" y="-350" width="90" height="30" as="geometry" />
        </mxCell>
        <mxCell id="596ySrerEDE0G81WWoC6-145" value="Output for the user" style="ellipse;shape=cloud;whiteSpace=wrap;html=1;strokeColor=#788AA3;fontFamily=Courier New;fontSize=11;fontColor=#46495D;labelBackgroundColor=none;fillColor=#B2C9AB;" vertex="1" parent="1">
          <mxGeometry x="-1260" y="-90" width="120" height="80" as="geometry" />
        </mxCell>
      </root>
    </mxGraphModel>
  </diagram>
</mxfile>
